<?xml version="1.0" standalone="no"?>
<!DOCTYPE svg PUBLIC "-//W3C//DTD SVG 20010904//EN"
 "http://www.w3.org/TR/2001/REC-SVG-20010904/DTD/svg10.dtd">
<svg version="1.0" xmlns="http://www.w3.org/2000/svg"
 width="700.000000pt" height="700.000000pt" viewBox="0 0 700.000000 700.000000"
 preserveAspectRatio="xMidYMid meet">
<metadata>
Created by potrace 1.11, written by Peter Selinger 2001-2013
</metadata>
<g transform="translate(0.000000,700.000000) scale(0.100000,-0.100000)"
fill="#000000" stroke="none">
<path d="M3305 6724 c-204 -20 -275 -29 -370 -45 -802 -142 -1520 -585 -2016
-1245 -706 -939 -845 -2174 -365 -3253 150 -337 390 -684 661 -956 529 -530
1173 -841 1940 -937 129 -16 561 -16 690 0 352 44 662 129 955 259 912 406
1587 1204 1830 2163 69 274 94 482 94 790 0 247 -8 348 -45 560 -226 1297
-1246 2343 -2539 2604 -198 40 -359 57 -585 61 -115 1 -228 1 -250 -1z m1525
-1282 c19 -9 43 -33 55 -52 19 -33 20 -54 23 -442 l3 -407 277 -3 277 -3 63
-34 c71 -39 115 -89 143 -161 18 -48 19 -91 19 -940 0 -862 -1 -891 -20 -942
-28 -76 -71 -122 -148 -160 l-67 -33 -272 -3 -273 -4 0 -335 c0 -367 -2 -382
-59 -416 -27 -16 -120 -17 -1308 -17 -1264 0 -1278 0 -1311 20 -60 36 -62 53
-62 419 l0 330 -282 3 -283 3 -51 27 c-60 32 -118 93 -148 157 -21 46 -21 48
-21 946 0 861 1 902 19 949 24 63 86 130 151 164 l50 27 283 3 282 3 0 405 c0
480 -1 474 99 505 14 4 589 8 1276 8 1171 1 1252 0 1285 -17z"/>
<path d="M2427 5193 c-4 -3 -7 -149 -7 -324 0 -280 2 -318 16 -323 9 -3 508
-6 1110 -6 l1094 0 0 330 0 330 -1103 0 c-607 0 -1107 -3 -1110 -7z"/>
<path d="M1662 4270 l-22 -9 2 -868 3 -868 260 0 260 0 5 353 5 354 32 28 c20
18 48 31 75 35 24 3 607 5 1295 3 l1253 -3 31 -31 c20 -20 34 -47 40 -75 4
-24 8 -185 9 -356 l0 -313 238 0 c199 0 241 3 260 16 l22 15 0 854 c0 834 0
855 -19 865 -25 13 -3716 13 -3749 0z m3198 -319 c84 -42 121 -151 80 -236
-56 -115 -192 -145 -287 -62 -86 75 -86 199 1 275 20 17 49 34 64 38 15 3 32
7 37 9 17 6 68 -6 105 -24z"/>
<path d="M2437 3033 c-16 -4 -17 -41 -15 -646 l3 -642 1105 0 1105 0 3 641 2
642 -22 6 c-26 7 -2154 6 -2181 -1z m1730 -264 c62 -23 99 -88 86 -151 -3 -16
-20 -45 -38 -64 l-32 -34 -648 0 -647 0 -39 39 c-33 33 -39 45 -39 82 0 55 30
105 73 124 26 12 141 14 644 15 410 0 621 -4 640 -11z m0 -520 c40 -15 71 -47
84 -86 16 -48 -10 -115 -55 -143 -33 -20 -47 -20 -666 -20 -617 0 -633 0 -665
20 -69 43 -79 145 -19 201 22 20 39 25 112 30 166 11 1179 10 1209 -2z"/>
</g>
</svg>
