<?xml version="1.0" encoding="utf-8"?>
<!-- Generator: Adobe Illustrator 22.0.1, SVG Export Plug-In . SVG Version: 6.00 Build 0)  -->
<svg version="1.1" id="Layer_1" xmlns="http://www.w3.org/2000/svg" xmlns:xlink="http://www.w3.org/1999/xlink" x="0px" y="0px"
	 viewBox="0 0 128 128" style="enable-background:new 0 0 128 128;" xml:space="preserve">
<style type="text/css">
	.st0{fill:#002060;}
	.st1{fill:#5CC6D6;}
	.st2{fill:#FFFFFF;}
</style>
<g>
	<circle class="st0" cx="64" cy="64" r="61.5"/>
	<path class="st1" d="M64,5c32.5,0,59,26.5,59,59s-26.5,59-59,59S5,96.5,5,64S31.5,5,64,5 M64,0C28.7,0,0,28.7,0,64s28.7,64,64,64
		s64-28.7,64-64S99.3,0,64,0L64,0z"/>
</g>
<g>
	<path class="st2" d="M104.1,49.8c0,10.7,0,21.3,0,32c-0.1,0.3-0.2,0.7-0.3,1c-0.5,1.6-1.6,2.8-3.2,3.4c-0.8,0.3-1.6,0.4-2.4,0.4
		c-2.6,0-5.3,0-7.9,0c-0.5,0-0.5,0-0.5,0.6c0,3.7,0,7.3,0,11c0,0.9-0.2,1.7-1,2.2c-0.5,0.4-1.1,0.4-1.7,0.4c-14.9,0-29.8,0-44.7,0
		c-0.1,0-0.3,0-0.4,0c-0.5,0-1-0.2-1.4-0.5c-0.7-0.6-0.9-1.3-0.9-2.1c0-3.6,0-7.2,0-10.8c0-0.7,0.1-0.7-0.7-0.7c-2.6,0-5.3,0-7.9,0
		c-1.9,0-3.5-0.7-4.7-2.3c-0.8-1-1.1-2.2-1.1-3.5c0-10,0-20,0-30c0-0.5,0-0.9,0.1-1.4c0.4-1.9,1.5-3.3,3.3-4.1
		c0.7-0.3,1.5-0.4,2.4-0.4c2.7,0,5.5,0,8.2,0c0.3,0,0.5-0.1,0.4-0.4c0-0.1,0-0.2,0-0.2c0-4.5,0-9,0-13.5c0-1.1,0.3-2,1.3-2.4
		c0.4-0.2,0.9-0.3,1.4-0.3c14.9,0,29.8,0,44.6,0c0.2,0,0.4,0,0.5,0c0.8,0.1,1.4,0.4,1.8,1.1c0.3,0.5,0.4,1.1,0.4,1.6
		c0,4.5,0,9,0,13.6c0,0.5,0,0.5,0.5,0.5c2.7,0,5.5,0,8.2,0c2.5,0,4.8,1.6,5.4,4C103.9,49.2,104,49.5,104.1,49.8z M64.6,49.8
		c-11.2,0-22.4,0-33.6,0c-0.8,0-1.1,0.4-1.1,1.1c0,10,0,20,0,30c0,0.8,0.3,1.1,1.1,1.1c2.1,0,4.3,0,6.4,0c0.6,0,1.2,0,1.8,0
		c0.3,0,0.4-0.1,0.4-0.4c0-0.1,0-0.2,0-0.4c0-3.6,0-7.2,0-10.8c0-0.9,0.2-1.6,0.9-2.2c0.5-0.4,1.2-0.5,1.8-0.5c14.9,0,29.7,0,44.6,0
		c0.2,0,0.4,0,0.6,0c0.7,0,1.2,0.3,1.6,0.8c0.5,0.5,0.6,1.2,0.6,1.9c0,3.7,0,7.3,0,11c0,0.5,0,0.5,0.5,0.5c2.6,0,5.3,0,7.9,0
		c0.7,0,1.2-0.2,1.2-1.2c0-9.9,0-19.9,0-29.8c0-0.1,0-0.3,0-0.4c0-0.4-0.3-0.7-0.7-0.7c-0.2,0-0.3,0-0.5,0
		C86.9,49.8,75.7,49.8,64.6,49.8z M64.6,96.1c6.6,0,13.2,0,19.8,0c0.5,0,0.5,0,0.5-0.5c0-7.5,0-15,0-22.5c0-0.6,0-0.6-0.6-0.6
		c-13.2,0-26.3,0-39.5,0c-0.6,0-0.6,0-0.6,0.6c0,7.5,0,15,0,22.5c0,0.5,0,0.5,0.5,0.5C51.4,96.1,58,96.1,64.6,96.1z M64.6,45
		c6.6,0,13.2,0,19.8,0c0.4,0,0.5-0.1,0.5-0.5c0-3.7,0-7.4,0-11.1c0-0.5,0-0.5-0.5-0.5c-13.2,0-26.4,0-39.6,0c-0.5,0-0.5,0-0.5,0.5
		c0,3.7,0,7.4,0,11c0,0.5,0,0.5,0.5,0.5C51.4,45,58,45,64.6,45z"/>
	<path class="st2" d="M87.3,62.1c-1.9,0-3.4-1.5-3.4-3.4c0-1.9,1.6-3.4,3.4-3.4c1.8,0,3.4,1.6,3.4,3.4
		C90.6,60.6,89.1,62.1,87.3,62.1z"/>
	<path class="st2" d="M64.6,82c-3.6,0-7.1,0-10.7,0c-1,0-1.8-0.4-2.3-1.3c-0.8-1.5,0.2-3.3,1.9-3.5c0.2,0,0.3,0,0.5,0
		c7.1,0,14.1,0,21.2,0c1.1,0,1.9,0.4,2.4,1.4c0.7,1.4-0.3,3.3-1.9,3.4c-0.7,0-1.4,0-2.1,0C70.6,82,67.6,82,64.6,82z"/>
	<path class="st2" d="M64.6,86.7c3.5,0,7.1,0,10.6,0c1.1,0,1.9,0.4,2.4,1.4c0.7,1.3-0.2,3-1.6,3.3c-0.3,0.1-0.6,0.1-0.9,0.1
		c-7,0-14.1,0-21.1,0c-1.1,0-2-0.4-2.5-1.4c-0.7-1.4,0.3-3.2,1.9-3.3c0.2,0,0.5,0,0.7,0C57.6,86.7,61.1,86.7,64.6,86.7z"/>
</g>
</svg>
